/* XPM */
static char *result[] = {
/* columns rows colors chars-per-pixel */
"32 32 250 2 ",
"   c #232322",
".  c #262625",
"X  c #212729",
"o  c #272928",
"O  c #262A2A",
"+  c #272A2A",
"@  c #20292D",
"#  c #272C2E",
"$  c #262C2F",
"%  c #292928",
"&  c #2A2928",
"*  c #2A2A29",
"=  c #292C2D",
"-  c #2A2D2D",
";  c #292D2F",
":  c #2B2D2E",
">  c #292E2F",
",  c #2F2E2D",
"<  c #2C2E2E",
"1  c #2D2E2E",
"2  c #2F2F2E",
"3  c #312F2D",
"4  c #302F2E",
"5  c #31302E",
"6  c #30302F",
"7  c #32302E",
"8  c #33312F",
"9  c #35312D",
"0  c #3B3029",
"q  c #38312C",
"w  c #3B322C",
"e  c #3B332C",
"r  c #3C332C",
"t  c #3D332C",
"y  c #3D332D",
"u  c #3E332C",
"i  c #3E342C",
"p  c #3E342D",
"a  c #3E342E",
"s  c #3F362F",
"d  c gray19",
"f  c #313231",
"g  c #303333",
"h  c #313333",
"j  c #353533",
"k  c #333535",
"l  c #383430",
"z  c #383939",
"x  c #383A3B",
"c  c #393B3B",
"v  c #3C3C3B",
"b  c #3B3D3E",
"n  c #6F3D1E",
"m  c #703D1E",
"M  c #4A3527",
"N  c #4C3527",
"B  c #41362E",
"V  c #41372F",
"C  c #4B372B",
"Z  c #4D3729",
"A  c #44382F",
"S  c #543826",
"D  c #543A29",
"F  c #563B29",
"G  c #573B29",
"H  c #583B29",
"J  c #453931",
"K  c #463931",
"L  c #453A32",
"P  c #4F3E33",
"I  c #413D3A",
"U  c #443D38",
"Y  c #663B21",
"T  c #683F26",
"R  c #603D28",
"E  c #40403E",
"W  c #40403F",
"Q  c #564133",
"!  c #584030",
"~  c #5E4434",
"^  c #5F4535",
"/  c #64412B",
"(  c #724123",
")  c #724326",
"_  c #794525",
"`  c #7A4625",
"'  c #7F4724",
"]  c #774729",
"[  c #72482D",
"{  c #694631",
"}  c #664C3C",
"|  c #744C33",
" . c #795037",
".. c #7A5036",
"X. c #3E4040",
"o. c #3F4142",
"O. c #414140",
"+. c #414141",
"@. c #424240",
"#. c #424241",
"$. c #484847",
"%. c gray29",
"&. c #4B4B4A",
"*. c #4B4C4B",
"=. c #4C4C4B",
"-. c #4D4D4C",
";. c #4E4E4D",
":. c #5F5147",
">. c #644E41",
",. c #654F41",
"<. c #625146",
"1. c #645E59",
"2. c #656565",
"3. c #6F6F6E",
"4. c #747473",
"5. c #787877",
"6. c #797978",
"7. c #797979",
"8. c #787C7E",
"9. c gray49",
"0. c #9C4C1B",
"q. c #9E4E1D",
"w. c #9F4F1F",
"e. c #A3511F",
"r. c #804724",
"t. c #814724",
"y. c #834925",
"u. c #8C4A22",
"i. c #8E4B22",
"p. c #8E4B23",
"a. c #8F4C23",
"s. c #814D2D",
"d. c #914B21",
"f. c #914C22",
"g. c #904C23",
"h. c #9A4F21",
"j. c #9B4F21",
"k. c #994F23",
"l. c #9A5022",
"z. c #9C5021",
"x. c #9E5020",
"c. c #9F5020",
"v. c #855030",
"b. c #8E5A3A",
"n. c #925835",
"m. c #965934",
"M. c #945A37",
"N. c #975B36",
"B. c #965D3A",
"V. c #9A5D39",
"C. c #985E3A",
"Z. c #985E3B",
"A. c #9A5F3B",
"S. c #9B5F3B",
"D. c #9C5F3B",
"F. c #A05121",
"G. c #A15121",
"H. c #A35322",
"J. c #A55524",
"K. c #A45525",
"L. c #A55525",
"P. c #A75625",
"I. c #A55626",
"U. c #AC5723",
"Y. c #A85725",
"T. c #A0582D",
"R. c #A36139",
"E. c #A6643C",
"W. c #A86238",
"Q. c #B36434",
"!. c #B46536",
"~. c #BB6530",
"^. c #BC6733",
"/. c #BF6732",
"(. c #B36A3E",
"). c #BF6F3E",
"_. c #C56B35",
"`. c #C66C35",
"'. c #C76C35",
"]. c #C06F3F",
"[. c #C4713F",
"{. c #CB733D",
"}. c #CD733C",
"|. c #CF733C",
" X c #CE743D",
".X c #CF743D",
"XX c #CE743E",
"oX c #CF743E",
"OX c #D2753C",
"+X c #D3753C",
"@X c #D4763D",
"#X c #815C44",
"$X c #9E6542",
"%X c #AF6A40",
"&X c #817D7A",
"*X c #C87441",
"=X c #D17741",
"-X c #D77940",
";X c #DB7C43",
":X c #DD7C42",
">X c #DE7D43",
",X c #AF8368",
"<X c #BB896A",
"1X c #A38979",
"2X c #E48043",
"3X c #D3916A",
"4X c #C19173",
"5X c #C49376",
"6X c #CA9777",
"7X c #CB9777",
"8X c #83878A",
"9X c #A68F81",
"0X c #B69886",
"qX c #A29993",
"wX c gray63",
"eX c #A4A5A5",
"rX c #A6A6A5",
"tX c #A5A6A7",
"yX c #A6A6A7",
"uX c #AAAAAA",
"iX c #AAACAD",
"pX c #AAAEB0",
"aX c #B6B6B6",
"sX c #B6B8B9",
"dX c #BABDBE",
"fX c gray74",
"gX c #C2A695",
"hX c #CCC1BA",
"jX c #E0C3B2",
"kX c #F1CFBA",
"lX c #F0CFBB",
"zX c #F2CFBA",
"xX c #F3D0BA",
"cX c #F4D1BB",
"vX c gray80",
"bX c #D3D4D5",
"nX c #E8D2C5",
"mX c #E2E1E1",
"MX c #E2E2E1",
"NX c #E2E2E2",
"BX c gray89",
"VX c #E0E3E4",
"CX c #E4E4E4",
"ZX c #E5E6E6",
"AX c #E6E6E6",
"SX c #EBEEF0",
"DX c #FBFAFA",
"FX c #FCFFFF",
"GX c white",
"HX c None",
/* pixels */
"HXHXHXHXHXHXHXHXHXHXHXHXHXHXHXHXHXHXHXHXHXHXHXHXHXHXHXHXHXHXHXHX",
"HXHXHXHXHXHXHXHXHXHXHXHXHXHXHXHXHXHXHXHXHXHXHXHXHXHXHXHXHXHXHXHX",
"HXHXHXHXHXHXHXHXHXHXHXHXHXHXHXHXHXHXHXHXHXHXHXHXHXHXHXHXHXHXHXHX",
"HXHXHXHXHXHXHXHXHXHXHXHXHXHXHXHXHXHXHXHXHXHXHXHXHXHXHXHXHXHXHXHX",
"HXHXHXHXHXHXHXHXHXHXHXHXHXHXHXHXHXHXHXHXHXHXHXHXHXHXHXHXHXHXHXHX",
"HXHXHXHXHXHXHXHXHXHXHXHXHXHXHXHXHXHXHXHXHXHXHXHXHXHXHXHXHXHXHXHX",
"HXHXHXHXHXHXHXHXHXHXHXHXHXHXHXHXHXHXHXHXHXHXHXHXHXHXHXHXHXHXHXHX",
"HXHXHXHXHXHXHXHXHXHXHXHXHXHXHXHXHXHXHXHXHXHXHXHXHXHXHXHXHXHXHXHX",
"HXHXHXHXHXHXHXHXHXHXHXHXHXHXHXHXHXHXHX4 2 HXHXHXHXHXHXHXHXHXHXHX",
"HXHXHXHXHXHXHXHXHXHXHXHXHXHXHXHXHXHXN Y q HXHXHX; # = 2 HXHXHXHX",
"HXHXHXHXHXHXHXHXHXHXHXHXHXHXHXHXHXM #X,XU HXHXHXG { Q 2 HXHXHXHX",
"HXHXHXHXHXHXHXHXHXHXHXHXHXHXHXHX4 n 6XmX*.HXHXw r.Q.b.4 HXHXHXHX",
"HXHXHXHXHXHXHXHXHXHXHXHXHXHXHXHX4 m 7XMX=.& 4 7 y A J HXHXHXHXHX",
"HXHXHXHXHXHXHXHXHXHXHXHXHXHXHXHX4 ( %X<X$XV.D.S.Z.P @ HXHXHXHXHX",
"HXHXHXHXHXHXHXHXHXHXHXHXHXHXHXHX1 ) q.e.+X(.W.`._.s.Z HXHXHXHXHX",
"HXHXHXHXHXHXHXHXHXHXHXHXHXHXHXHXu _ w.J.}. ./ K.L.k.T , HXHXHXHX",
"HXHXHXHXHXHXHX4 4 4 4 HXHXHXHXu y.l.z.I.XX*X[.oX X| 9 6 2 HXHXHX",
"HXHXHXHX  X ~ B.B.C...4 HXHXHXI 1X0XgXjXlXcXxXzXkXhXdXrXO.HXHXHX",
"HXHXHXHX4.:.v.:X>X2XA.4 HXHXO x 8.8XpXSXSXFXGXGXGXbXaXuX%.HXHXHX",
"HXW O.2.AX5XU.|..X@XM.5 e i u i p 0 1.eXyXvXCXBXNX5.% 6 HXHXHXHX",
"6 7.fXZXDX4X0.K.K.Y.] t t.g.p.p.i.d.[ @.#.$.-.=.&.HXHXHXHXHXHXHX",
"2 ;.3.9.6.<.S D D D R ` h.G.x.H./.'.!.N.m.9XsXwXv HXHXHXHXHXHXHX",
"2 * .     + > ; ; $ F F.G.c.P.~.-X;XOX{.3XnXVXtX+.HXHXHXHXHXHXHX",
"HXHXHXHXHXHXHXHXHX; F j.f.u.T.).].=X^.n.qXiX&Xa 3 HXHXHXHXHXHXHX",
"HXHXHXHXHXHXHXHXHX; H a.C e B J K E.R.s E o.^ ' r HXHXHXHXHXHXHX",
"HXHXHXHXHXHXHXHXHX< V ! 8 g h - : >.,.< HXo L } l HXHXHXHXHXHXHX",
"HXHXHXHXHXHXHXHXHX2 f k d j j 2 2 b c 2 HXHXz X.f HXHXHXHXHXHXHX",
"HXHXHXHXHXHXHXHXHX2 2 2 HX2 2 HXHX2 2 2 HXHXHX2 2 HXHXHXHXHXHXHX",
"HXHXHXHXHXHXHXHXHXHXHXHXHXHXHXHXHXHXHXHXHXHXHXHXHXHXHXHXHXHXHXHX",
"HXHXHXHXHXHXHXHXHXHXHXHXHXHXHXHXHXHXHXHXHXHXHXHXHXHXHXHXHXHXHXHX",
"HXHXHXHXHXHXHXHXHXHXHXHXHXHXHXHXHXHXHXHXHXHXHXHXHXHXHXHXHXHXHXHX",
"HXHXHXHXHXHXHXHXHXHXHXHXHXHXHXHXHXHXHXHXHXHXHXHXHXHXHXHXHXHXHXHX"
};
