/* XPM */
static char *result[] = {
/* columns rows colors chars-per-pixel */
"32 32 251 2 ",
"   c #272928",
".  c #262A2A",
"X  c #20292D",
"o  c #252A2C",
"O  c #262B2D",
"+  c #272C2E",
"@  c #292928",
"#  c #2A2928",
"$  c #292C2D",
"%  c #2A2D2D",
"&  c #292D2F",
"*  c #2B2D2E",
"=  c #2A2D2F",
"-  c #2B2E2E",
";  c #2F2E2D",
":  c #2C2E2E",
">  c #2D2E2E",
",  c #2F2F2E",
"<  c #312F2D",
"1  c #302F2E",
"2  c #31302E",
"3  c #30302F",
"4  c #32302E",
"5  c #33312F",
"6  c #35312D",
"7  c #3B3029",
"8  c #3D322B",
"9  c #38312C",
"0  c #3B322C",
"q  c #3B332C",
"w  c #3C332C",
"e  c #3D332C",
"r  c #3D332D",
"t  c #3E332C",
"y  c #3E342C",
"u  c #3E342D",
"i  c #3E342E",
"p  c #3F362F",
"a  c gray19",
"s  c #313231",
"d  c #303333",
"f  c #313333",
"g  c #353533",
"h  c #333535",
"j  c #383430",
"k  c #3F3833",
"l  c #383939",
"z  c #383A3B",
"x  c #393B3B",
"c  c #3C3C3B",
"v  c #3B3D3E",
"b  c #6F3D1E",
"n  c #703D1E",
"m  c #4A3527",
"M  c #4C3527",
"N  c #41342B",
"B  c #41362E",
"V  c #41372F",
"C  c #4B372B",
"Z  c #4D3729",
"A  c #44382F",
"S  c #5D3C27",
"D  c #573B29",
"F  c #543A2A",
"G  c #583B29",
"H  c #5E3D28",
"J  c #453931",
"K  c #463931",
"L  c #453A32",
"P  c #4F3E33",
"I  c #413D3A",
"U  c #443D38",
"Y  c #663B21",
"T  c #683F26",
"R  c #40403E",
"E  c #564133",
"W  c #584030",
"Q  c #5F4535",
"!  c #64412B",
"~  c #724123",
"^  c #714225",
"/  c #724326",
"(  c #744325",
")  c #794525",
"_  c #7A4625",
"`  c #7F4724",
"'  c #764628",
"]  c #72482D",
"[  c #78482A",
"{  c #614634",
"}  c #694631",
"|  c #6A4934",
" . c #6C4A35",
".. c #6C4B36",
"X. c #664C3C",
"o. c #744C33",
"O. c #795037",
"+. c #3E4040",
"@. c #3F4142",
"#. c #414140",
"$. c #414141",
"%. c #424240",
"&. c #424241",
"*. c gray26",
"=. c #484847",
"-. c gray29",
";. c #4B4B4A",
":. c #4B4C4B",
">. c #4C4C4B",
",. c #4D4D4C",
"<. c gray33",
"1. c #565656",
"2. c #644E41",
"3. c #654F41",
"4. c #645E59",
"5. c #787877",
"6. c #787C7E",
"7. c #8D491F",
"8. c #9E4E1D",
"9. c #9D4F1F",
"0. c #9F4F1F",
"q. c #A3511F",
"w. c #804724",
"e. c #814724",
"r. c #834925",
"t. c #844824",
"y. c #8C4A22",
"u. c #8D4B23",
"i. c #8E4B22",
"p. c #8E4B23",
"a. c #8E4C23",
"s. c #8F4C23",
"d. c #814D2D",
"f. c #914B21",
"g. c #914C22",
"h. c #904C23",
"j. c #9A4F21",
"k. c #9B4F21",
"l. c #994F23",
"z. c #9A5022",
"x. c #9C5021",
"c. c #9E5020",
"v. c #9F5020",
"b. c #8E5A3A",
"n. c #925835",
"m. c #935A37",
"M. c #965934",
"N. c #975B36",
"B. c #9A5D39",
"V. c #985E3B",
"C. c #9B5F3B",
"Z. c #9C5F3B",
"A. c #A05121",
"S. c #A15121",
"D. c #A35322",
"F. c #A55524",
"G. c #A45525",
"H. c #A55525",
"J. c #A75625",
"K. c #A55626",
"L. c #AB5725",
"P. c #A0582D",
"I. c #B25F2C",
"U. c #B2602E",
"Y. c #B5602C",
"T. c #B6602C",
"R. c #BB642F",
"E. c #A36139",
"W. c #A6643C",
"Q. c #A86238",
"!. c #B36434",
"~. c #B46536",
"^. c #BB6530",
"/. c #BC6733",
"(. c #BF6732",
"). c #B36A3E",
"_. c #BF6F3E",
"`. c #C56B35",
"'. c #C66C35",
"]. c #C76C35",
"[. c #C06F3F",
"{. c #C4713F",
"}. c #CB733D",
"|. c #CD733C",
" X c #CE743D",
".X c #CE743E",
"XX c #CF743E",
"oX c #D2753C",
"OX c #D3753C",
"+X c #D6783F",
"@X c #815C44",
"#X c #9E6542",
"$X c #997056",
"%X c #AF6A40",
"&X c #817D7A",
"*X c #C87441",
"=X c #D17741",
"-X c #D57941",
";X c #D77940",
":X c #D67941",
">X c #DB7C43",
",X c #AF8368",
"<X c #BB896A",
"1X c #A38979",
"2X c #D3916A",
"3X c #CA9777",
"4X c #CB9777",
"5X c #CB9A7C",
"6X c #83878A",
"7X c #8E8E8D",
"8X c gray59",
"9X c #979796",
"0X c #A68F81",
"qX c #B59887",
"wX c #B69886",
"eX c #A29993",
"rX c gray63",
"tX c #A4A5A5",
"yX c #A6A6A5",
"uX c #A5A6A7",
"iX c #A6A6A7",
"pX c #AAAAAA",
"aX c #AAACAD",
"sX c #ADADAC",
"dX c #AAAEB0",
"fX c #B6B6B6",
"gX c #B6B8B9",
"hX c #B6BBBD",
"jX c #BABDBE",
"kX c #C2A695",
"lX c #CCC1BA",
"zX c #E0C3B2",
"xX c #F1CFBA",
"cX c #F0CFBB",
"vX c #F2CFBA",
"bX c #F3D0BA",
"nX c #F4D1BB",
"mX c gray80",
"MX c #D3D4D5",
"NX c #E8D2C5",
"BX c #EFDDD3",
"VX c #E2E1E1",
"CX c #E2E2E1",
"ZX c #E2E2E2",
"AX c gray89",
"SX c #E0E3E4",
"DX c #E4E4E4",
"FX c #EBEEF0",
"GX c #FCFFFF",
"HX c white",
"JX c None",
/* pixels */
"JXJXJXJXJXJXJXJXJXJXJXJXJXJXJXJXJXJXJXJXJXJXJXJXJXJXJXJXJXJXJXJX",
"JXJXJXJXJXJXJXJXJXJXJXJXJXJXJXJXJXJXJXJXJXJXJXJXJXJXJXJXJXJXJXJX",
"JXJXJXJXJXJXJXJXJXJXJXJXJXJXJXJXJXJXJXJXJXJXJXJXJXJXJXJXJXJXJXJX",
"JXJXJXJXJXJXJXJXJXJXJXJXJXJXJXJXJXJXJXJXJXJXJXJXJXJXJXJXJXJXJXJX",
"JXJXJXJXJXJXJXJXJXJXJXJXJXJXJXJXJXJXJXJXJXJXJXJXJXJXJXJXJXJXJXJX",
"JXJXJXJXJXJXJXJXJXJXJXJXJXJXJXJXJXJXJXJXJXJXJXJXJXJXJXJXJXJXJXJX",
"JXJXJXJXJXJXJXJXJXJXJXJXJXJXJXJXJXJXJXJXJXJXJXJXJXJXJXJXJXJXJXJX",
"JXJXJXJXJXJXJXJXJXJXJXJXJXJXJXJXJXJXJXJXJXJXJXJXJXJXJXJXJXJXJXJX",
"JXJXJXJXJXJXJXJXJXJXJXJXJXJXJXJXJXJXJX1 , JXJXJXJXJXJXJXJXJXJXJX",
"JXJXJXJXJXJXJXJXJXJXJXJXJXJXJXJXJXJXM Y 9 JXJXJX& + $ , JXJXJXJX",
"JXJXJXJXJXJXJXJXJXJXJXJXJXJXJXJXJXm @X,XU JXJXJXD } E , JXJXJXJX",
"JXJXJXJXJXJXJXJXJXJXJXJXJXJXJXJX1 b 3XVX:.JXJX0 w.!.b.1 JXJXJXJX",
"JXJXJXJXJXJXJXJXJXJXJXJXJXJXJXJX1 n 4XCX>.# 1 4 r A J JXJXJXJXJX",
"JXJXJXJXJXJXJXJXJXJXJXJXJXJXJXJX1 ~ %X<X#XB.Z.C.V.P X JXJXJXJXJX",
"JXJXJXJXJX<.1.JXJXJXJXJXJXJXJXJX> / 8.q.OX).Q.'.`.d.Z JXJXJXJXJX",
"JXJXJXJX*.8X7X3 JXJXJXJXJXJXJXJXt ) 0.F.|.O.! G.H.l.T ; JXJXJXJX",
"JXJXJX#.9XCXsX3 JXJXJXJXJXJXJXt r.z.x.K..X*X{.XX Xo.6 3 , JXJXJX",
"JXJXJXk $XBXhX= o O JXJXJXJXJXI 1XwXkXzXcXnXbXvXxXlXjXyX#.JXJXJX",
"JXJXJX8 7.5XqX..|  .{ JXJXJX. z 6.6XdXFXFXGXHXHXHXMXfXpX-.JXJXJX",
"JXJXJXt a.c.U.-X:X+Xm.2 q y t y u 7 4.tXiXmXDXAXZX5.@ 3 JXJXJXJX",
"JXJXJXt u.9.I.:X:XR.' e e.h.p.p.i.f.] %.&.=.,.>.;.JXJXJXJXJXJXJX",
"JXJXJXJXF t.L.T.Y.[ S _ j.S.c.D.(.].~.N.M.0XgXrXc JXJXJXJXJXJXJX",
"JXJXJXJX= H ( ^ ^ N F A.S.v.J.^.;X>XoX}.2XNXSXuX$.JXJXJXJXJXJXJX",
"JXJXJXJXJX1 1 1 1 - G k.g.y.P._.[.=X/.n.eXaX&Xi < JXJXJXJXJXJXJX",
"JXJXJXJXJXJXJXJXJX& G s.C q B J K W.E.p R @.Q ` w JXJXJXJXJXJXJX",
"JXJXJXJXJXJXJXJXJX: V W 5 d f % * 2.3.: JX  L X.j JXJXJXJXJXJXJX",
"JXJXJXJXJXJXJXJXJX, s h a g g , , v x , JXJXl +.s JXJXJXJXJXJXJX",
"JXJXJXJXJXJXJXJXJX, , , JX, , JXJX, , , JXJXJX, , JXJXJXJXJXJXJX",
"JXJXJXJXJXJXJXJXJXJXJXJXJXJXJXJXJXJXJXJXJXJXJXJXJXJXJXJXJXJXJXJX",
"JXJXJXJXJXJXJXJXJXJXJXJXJXJXJXJXJXJXJXJXJXJXJXJXJXJXJXJXJXJXJXJX",
"JXJXJXJXJXJXJXJXJXJXJXJXJXJXJXJXJXJXJXJXJXJXJXJXJXJXJXJXJXJXJXJX",
"JXJXJXJXJXJXJXJXJXJXJXJXJXJXJXJXJXJXJXJXJXJXJXJXJXJXJXJXJXJXJXJX"
};
