/* XPM */
static char *result[] = {
/* columns rows colors chars-per-pixel */
"32 32 118 2 ",
"   c #1E1E1C",
".  c gray14",
"X  c #252A2C",
"o  c #2D2E2E",
"O  c #302F2E",
"+  c #32302E",
"@  c #3C332C",
"#  c #323332",
"$  c #383430",
"%  c #3A3B3B",
"&  c #6F3D1E",
"*  c #703D1E",
"=  c #4B3527",
"-  c #41372F",
";  c #4C372A",
":  c #44382F",
">  c #4E3B2F",
",  c #523726",
"<  c #5E3D27",
"1  c #543B2A",
"2  c #583B29",
"3  c #453931",
"4  c #4F3E33",
"5  c #433D39",
"6  c #663B21",
"7  c #683F26",
"8  c #40403E",
"9  c #564133",
"0  c #5C4333",
"q  c #64412B",
"w  c #744325",
"e  c #7C4625",
"r  c #72482D",
"t  c #694631",
"y  c #664C3C",
"u  c #744C33",
"i  c #784D32",
"p  c #6C503F",
"a  c #795037",
"s  c #3F4141",
"d  c #424241",
"f  c #484847",
"g  c #4C4C4B",
"h  c #545556",
"j  c #654F41",
"k  c #745846",
"l  c #645E59",
"z  c #797674",
"x  c #787877",
"c  c #797B7D",
"v  c #9F4F1E",
"b  c #A3511F",
"n  c #804724",
"m  c #844925",
"M  c #8E4B23",
"N  c #814C2C",
"B  c #914C22",
"V  c #9A4F22",
"C  c #9D5021",
"Z  c #8D5939",
"A  c #955935",
"S  c #9A5E3B",
"D  c #A45423",
"F  c #A0582D",
"G  c #A5633B",
"H  c #AB653A",
"J  c #B46535",
"K  c #BD6732",
"L  c #B36A3E",
"P  c #BF6F3E",
"I  c #C66C35",
"U  c #C06F3F",
"Y  c #C4713F",
"T  c #CE743E",
"R  c #D1753D",
"E  c #815C44",
"W  c #9E6542",
"Q  c #AF6A40",
"!  c #B16B41",
"~  c #817D7A",
"^  c #CB7541",
"/  c #D17741",
"(  c #D77940",
")  c #DD7D43",
"_  c #E07E43",
"`  c #AF8368",
"'  c #BB896A",
"]  c #A38979",
"[  c #D88756",
"{  c #D3916A",
"}  c #CB9777",
"|  c #83878A",
" . c #959696",
".. c #A68F81",
"X. c #B69886",
"o. c #A29993",
"O. c #BDA597",
"+. c #A4A5A5",
"@. c #AAABAB",
"#. c #AAAEB0",
"$. c #B6B6B6",
"%. c #B6B8B9",
"&. c #BABDBE",
"*. c #C2A695",
"=. c #CCC1BA",
"-. c #E0C3B2",
";. c #F1CFBA",
":. c #F4D1BB",
">. c gray80",
",. c #D3D4D5",
"<. c #DADBDB",
"1. c #E8D2C5",
"2. c #EED8CB",
"3. c #E2E3E3",
"4. c #EBEEF0",
"5. c #F7F5F4",
"6. c #FEFFFF",
"7. c None",
/* pixels */
"7.7.7.7.7.7.7.7.7.7.7.7.7.7.7.7.7.7.7.7.7.7.7.7.7.7.7.7.7.7.7.7.",
"7.7.7.7.7.7.7.7.7.7.7.7.7.7.7.7.7.7.7.7.7.7.7.7.7.7.7.7.7.7.7.7.",
"7.7.7.7.7.7.7.7.7.7.7.7.7.7.7.7.7.7.7.7.7.7.7.7.7.7.7.7.7.7.7.7.",
"7.7.7.7.7.7.7.7.7.7.7.7.7.7.7.7.7.7.7.7.7.7.7.7.7.7.7.7.7.7.7.7.",
"7.7.7.7.7.7.7.7.7.7.7.7.7.7.7.7.7.7.7.7.7.7.7.7.7.7.7.7.7.7.7.7.",
"7.7.7.7.7.7.7.7.7.7.7.7.7.7.7.7.7.7.7.7.7.7.7.7.7.7.7.7.7.7.7.7.",
"7.7.7.7.7.7.7.7.7.7.7.7.7.7.7.7.7.7.7.7.7.7.7.7.7.7.7.7.7.7.7.7.",
"7.7.7.7.7.7.7.7.7.7.7.7.7.7.7.7.7.7.7.7.7.7.7.7.7.7.7.7.7.7.7.7.",
"7.7.7.7.7.7.7.7.7.7.7.7.7.7.7.7.7.7.7.o O 7.7.7.7.7.7.7.7.7.7.7.",
"7.7.7.7.7.7.7.7.7.7.7.7.7.7.7.7.7.7.= 6 @ 7.7.7.o o o O 7.7.7.7.",
"7.7.7.7.7.7.7.7.7.7.7.7.7.7.7.7.7.= E ` 5 7.7.7.1 t 9 o 7.7.7.7.",
"7.7.7.7.7.7.7.7.7.7.7.7.7.7.7.7.O * } 3.g 7.7.@ e J Z + 7.7.7.7.",
"7.7.7.O + 7.7.7.7.7.7.7.7.7.7.7.O & } 3.f X o + @ 3 3 7.7.7.7.7.",
"7.7.7.% x h   . X 7.7.7.7.7.7.7.O w L ' Q S S S S 4 X 7.7.7.7.7.",
"7.7.7.d @. .c z p 1 7.7.7.7.7.7.o w v b R L H I I i ; 7.7.7.7.7.",
"7.7.7.d  .<.5.2.[ i $ 7.7.7.7.7.@ w v D T i q D D V 7 o 7.7.7.7.",
"7.7.7.7.s  .O.Q R ^ Z O 7.7.7.@ m C C D T ^ ^ T T u + O O 7.7.7.",
"7.7.7.7.7.h k D R ) U Z 3 7.7.5 ] X.*.-.:.:.;.;.;.=.&.+.8 7.7.7.",
"7.7.7.7.7.X , D K / _ ^ 3 X X % c | #.4.4.6.6.6.6.,.$.@.g 7.7.7.",
"7.7.7.7.7.o 1 M C K ^ H > @ @ @ @ @ l +.+.>.3.3.3.x X O 7.7.7.7.",
"7.7.7.7.7.7.7.> B D N 1 n M M M M B r d d f g g g 7.7.7.7.7.7.7.",
"7.7.7.7.7.7.7.7.1 1 < w V D v D K I J A A ..$.+.% 7.7.7.7.7.7.7.",
"7.7.7.7.7.7.7.7.X X 2 D v v D K ( ) R Y { 1.3.@.d 7.7.7.7.7.7.7.",
"7.7.7.7.7.7.7.7.7.o 1 V M v A P ^ ^ K A o.@.~ $ O 7.7.7.7.7.7.7.",
"7.7.7.7.7.7.7.7.7.o 1 B ; @ - 3 3 G G @ d d 0 m @ 7.7.7.7.7.7.7.",
"7.7.7.7.7.7.7.7.7.o - 9 # o # o o j j o 7.X 3 y $ 7.7.7.7.7.7.7.",
"7.7.7.7.7.7.7.7.7.# # # # $ # o # % % o 7.7.% % # 7.7.7.7.7.7.7.",
"7.7.7.7.7.7.7.7.7.o o O 7.o # 7.7.O o + 7.7.7.O O 7.7.7.7.7.7.7.",
"7.7.7.7.7.7.7.7.7.7.7.7.7.7.7.7.7.7.7.7.7.7.7.7.7.7.7.7.7.7.7.7.",
"7.7.7.7.7.7.7.7.7.7.7.7.7.7.7.7.7.7.7.7.7.7.7.7.7.7.7.7.7.7.7.7.",
"7.7.7.7.7.7.7.7.7.7.7.7.7.7.7.7.7.7.7.7.7.7.7.7.7.7.7.7.7.7.7.7.",
"7.7.7.7.7.7.7.7.7.7.7.7.7.7.7.7.7.7.7.7.7.7.7.7.7.7.7.7.7.7.7.7."
};
