/* XPM */
static char *result[] = {
/* columns rows colors chars-per-pixel */
"32 32 243 2 ",
"   c #272928",
".  c #262A2A",
"X  c #20292D",
"o  c #272C2E",
"O  c #292928",
"+  c #2A2928",
"@  c #292C2D",
"#  c #2A2D2D",
"$  c #292D2F",
"%  c #2B2D2E",
"&  c #2B2E2E",
"*  c #2F2E2D",
"=  c #2C2E2E",
"-  c #2D2E2E",
";  c #2F2F2E",
":  c #312F2D",
">  c #302F2E",
",  c #31302E",
"<  c #30302F",
"1  c #32302E",
"2  c #33312F",
"3  c #35312D",
"4  c #3B3029",
"5  c #38312C",
"6  c #3B322C",
"7  c #3B332C",
"8  c #3C332C",
"9  c #3D332C",
"0  c #3D332D",
"q  c #3E332C",
"w  c #3E342C",
"e  c #3E342D",
"r  c #3E342E",
"t  c #3F362F",
"y  c gray19",
"u  c #313231",
"i  c #303333",
"p  c #313333",
"a  c #353533",
"s  c #333535",
"d  c #383430",
"f  c #383939",
"g  c #383A3B",
"h  c #393B3B",
"j  c #3C3C3B",
"k  c #3B3D3E",
"l  c #6F3D1E",
"z  c #703D1E",
"x  c #4A3527",
"c  c #4C3527",
"v  c #41342B",
"b  c #41362E",
"n  c #41372F",
"m  c #4B372A",
"M  c #4B372B",
"N  c #4D3729",
"B  c #44382F",
"V  c #5D3C27",
"C  c #573B29",
"Z  c #543A2A",
"A  c #583B29",
"S  c #453931",
"D  c #463931",
"F  c #453A32",
"G  c #4F3E33",
"H  c #413D3A",
"J  c #443D38",
"K  c #663B21",
"L  c #683F26",
"P  c #703E20",
"I  c #40403E",
"U  c #40403F",
"Y  c #564133",
"T  c #584030",
"R  c #5C4334",
"E  c #5F4535",
"W  c #64412B",
"Q  c #724123",
"!  c #714225",
"~  c #724326",
"^  c #794525",
"/  c #7A4625",
"(  c #7F4724",
")  c #764628",
"_  c #72472C",
"`  c #72482D",
"'  c #78482A",
"]  c #694631",
"[  c #664C3C",
"{  c #744C33",
"}  c #795037",
"|  c #3E4040",
" . c #3F4142",
".. c #414140",
"X. c #414141",
"o. c #424240",
"O. c #424241",
"+. c #464645",
"@. c #484847",
"#. c gray29",
"$. c #4B4B4A",
"%. c #4B4B4B",
"&. c #4B4C4B",
"*. c #4C4C4B",
"=. c #4D4D4C",
"-. c #545453",
";. c #525454",
":. c #644E41",
">. c #654F41",
",. c #645E59",
"<. c #7E7873",
"1. c #787877",
"2. c #797979",
"3. c #787C7E",
"4. c #9E4E1D",
"5. c #9F4F1F",
"6. c #A3511F",
"7. c #804724",
"8. c #814724",
"9. c #834925",
"0. c #8C4A22",
"q. c #8E4B22",
"w. c #8E4B23",
"e. c #8F4C23",
"r. c #814D2D",
"t. c #914B21",
"y. c #914C22",
"u. c #904C23",
"i. c #9A4F21",
"p. c #9B4F21",
"a. c #994F23",
"s. c #9A5022",
"d. c #9C5021",
"f. c #9E5020",
"g. c #9F5020",
"h. c #8E5A3A",
"j. c #925835",
"k. c #935A37",
"l. c #965934",
"z. c #975B36",
"x. c #945C3A",
"c. c #9A5D39",
"v. c #985E3B",
"b. c #9B5F3B",
"n. c #9C5F3B",
"m. c #A05121",
"M. c #A15121",
"N. c #A35322",
"B. c #A55524",
"V. c #A45525",
"C. c #A55525",
"Z. c #A75625",
"A. c #A55626",
"S. c #A0582D",
"D. c #B55E2A",
"F. c #B5602C",
"G. c #B6602C",
"H. c #BB642F",
"J. c #A36139",
"K. c #A6643C",
"L. c #A86238",
"P. c #B36434",
"I. c #B46536",
"U. c #BB6530",
"Y. c #BC6733",
"T. c #BF6732",
"R. c #B36A3E",
"E. c #BF6F3E",
"W. c #C56B35",
"Q. c #C66C35",
"!. c #C76C35",
"~. c #C06F3F",
"^. c #C4713F",
"/. c #CB733D",
"(. c #CD733C",
"). c #CE743D",
"_. c #CE743E",
"`. c #CF743E",
"'. c #D6753B",
"]. c #D2753C",
"[. c #D3753C",
"{. c #D7783F",
"}. c #815C44",
"|. c #9E6542",
" X c #A36845",
".X c #AF6A40",
"XX c #BD7245",
"oX c #817D7A",
"OX c #C87441",
"+X c #D17741",
"@X c #D77940",
"#X c #D67941",
"$X c #DB7B41",
"%X c #DB7C43",
"&X c #AF8368",
"*X c #BB896A",
"=X c #A38979",
"-X c #D3916A",
";X c #CA9777",
":X c #CB9777",
">X c #DB9F7C",
",X c #83878A",
"<X c #8F9090",
"1X c #A68F81",
"2X c #B69886",
"3X c #A29993",
"4X c gray63",
"5X c #A4A5A5",
"6X c #A6A6A5",
"7X c #A5A6A7",
"8X c #A6A6A7",
"9X c #AAAAAA",
"0X c #AAACAD",
"qX c #AAAEB0",
"wX c #B6B6B6",
"eX c #B6B8B9",
"rX c #BABDBE",
"tX c gray",
"yX c #CDA085",
"uX c #C2A695",
"iX c #CCC1BA",
"pX c #E0C3B2",
"aX c #F1CFBA",
"sX c #F0CFBB",
"dX c #F2CFBA",
"fX c #F3D0BA",
"gX c #F4D1BB",
"hX c gray80",
"jX c #D9D3CE",
"kX c #D3D4D5",
"lX c #E8D2C5",
"zX c #E2E1E0",
"xX c #E2E1E1",
"cX c #E2E2E1",
"vX c #E1E2E2",
"bX c #E2E2E2",
"nX c gray89",
"mX c #E0E3E4",
"MX c #E4E4E4",
"NX c #EBEEF0",
"BX c #FCFFFF",
"VX c white",
"CX c None",
/* pixels */
"CXCXCXCXCXCXCXCXCXCXCXCXCXCXCXCXCXCXCXCXCXCXCXCXCXCXCXCXCXCXCXCX",
"CXCXCXCXCXCXCXCXCXCXCXCXCXCXCXCXCXCXCXCXCXCXCXCXCXCXCXCXCXCXCXCX",
"CXCXCXCXCXCXCXCXCXCXCXCXCXCXCXCXCXCXCXCXCXCXCXCXCXCXCXCXCXCXCXCX",
"CXCXCXCXCXCXCXCXCXCXCXCXCXCXCXCXCXCXCXCXCXCXCXCXCXCXCXCXCXCXCXCX",
"CXCXCXCXCXCXCXCXCXCXCXCXCXCXCXCXCXCXCXCXCXCXCXCXCXCXCXCXCXCXCXCX",
"CXCXCXCXCXCXCXCXCXCXCXCXCXCXCXCXCXCXCXCXCXCXCXCXCXCXCXCXCXCXCXCX",
"CXCXCXCXCXCXCXCXCXCXCXCXCXCXCXCXCXCXCXCXCXCXCXCXCXCXCXCXCXCXCXCX",
"CXCXCXCXCXCXCXCXCXCXCXCXCXCXCXCXCXCXCXCXCXCXCXCXCXCXCXCXCXCXCXCX",
"CXCXCXCXCXCXCXCXCXCXCXCXCXCXCXCXCXCXCX> ; CXCXCXCXCXCXCXCXCXCXCX",
"CXCXCXCXCXCXCXCXCXCXCXCXCXCXCXCXCXCXc K 5 CXCXCX$ o @ ; CXCXCXCX",
"CXCXCXCXCXCXCXCXCXCXCXCXCXCXCXCXCXx }.&XJ CXCXCXC ] Y ; CXCXCXCX",
"CXCXCXCXCXCXCXCXCXCXCXCXCXCXCXCX> l ;XxX&.CXCX6 7.P.h.> CXCXCXCX",
"CXCXCXCXCXCXCX< CXCXCXCXCXCXCXCX> z :XcX*.+ > 1 0 B S CXCXCXCXCX",
"CXCXCXCXCXCX-.2.U CXCXCXCXCXCXCX> Q .X*X|.c.n.b.v.G X CXCXCXCXCX",
"CXCXCXCXCX;.<XtX+.CXCXCXCXCXCXCX- ~ 4.6.[.R.L.Q.W.r.N CXCXCXCXCX",
"CXCXCXCX< <.jXvX%.CXCXCXCXCXCXCXq ^ 5.B.(.} W V.C.a.L * CXCXCXCX",
"CXCXCXCX> _ yXzX*.CXCXCXCXCXCXq 9.s.d.A._.OX^.`.).{ 3 < ; CXCXCX",
"CXCXCXCX> P XX>X XT CXCXCXCXCXH =X2XuXpXsXgXfXdXaXiXrX6X..CXCXCX",
"CXCXCXCX> ! D.'.$Xx.R CXCXCX. g 3.,XqXNXNXBXVXVXVXkXwX9X#.CXCXCX",
"CXCXCXCX> ! G.#X#X{.k., 7 w q w e 4 ,.5X8XhXMXnXbX1.O < CXCXCXCX",
"CXCXCXCX> ! F.#X#XH.) 9 8.u.w.w.q.t.` o.O.@.=.*.$.CXCXCXCXCXCXCX",
"CXCXCXCXCXm ' G.G.' V / i.M.f.N.T.!.I.z.l.1XeX4Xj CXCXCXCXCXCXCX",
"CXCXCXCXCXCXm ! ! v Z m.M.g.Z.U.@X%X]./.-XlXmX7XX.CXCXCXCXCXCXCX",
"CXCXCXCXCXCXCX> > & A p.y.0.S.E.~.+XY.j.3X0XoXr : CXCXCXCXCXCXCX",
"CXCXCXCXCXCXCXCXCX$ A e.M 7 b S D K.J.t I  .E ( 8 CXCXCXCXCXCXCX",
"CXCXCXCXCXCXCXCXCX= n T 2 i p # % :.>.= CX  F [ d CXCXCXCXCXCXCX",
"CXCXCXCXCXCXCXCXCX; u s y a a ; ; k h ; CXCXf | u CXCXCXCXCXCXCX",
"CXCXCXCXCXCXCXCXCX; ; ; CX; ; CXCX; ; ; CXCXCX; ; CXCXCXCXCXCXCX",
"CXCXCXCXCXCXCXCXCXCXCXCXCXCXCXCXCXCXCXCXCXCXCXCXCXCXCXCXCXCXCXCX",
"CXCXCXCXCXCXCXCXCXCXCXCXCXCXCXCXCXCXCXCXCXCXCXCXCXCXCXCXCXCXCXCX",
"CXCXCXCXCXCXCXCXCXCXCXCXCXCXCXCXCXCXCXCXCXCXCXCXCXCXCXCXCXCXCXCX",
"CXCXCXCXCXCXCXCXCXCXCXCXCXCXCXCXCXCXCXCXCXCXCXCXCXCXCXCXCXCXCXCX"
};
