/* XPM */
static char *e9eacad180db45d9f589ead000ca28abeMYnlCFHLDrOUH0L[] = {
/* columns rows colors chars-per-pixel */
"32 32 4 1 ",
"  c None",
". c #3E734E",
"X c #7AB055",
"o c #4D9262",
/* pixels */
"                                ",
"oooooooooooooooooooooooooooooooo",
"oooooooooooooooooooooo.ooooooooo",
"ooooooooooooooooooooo.o.oooooooo",
"oooooooooooooooooooooo.ooooooooo",
"oooooooooooooooooooooooooooooooo",
"oooooooooooooooooooooooooooooooo",
"oooooooooooooooooXoooooooooooooo",
"oooooooooooooooooXXooooooooooooo",
"ooooooXooooooooooXXooXoooooooooo",
"ooooooXoooooooooooX.XXoooooooooo",
"ooooooXoXooooooooo.XX.oooooooooo",
"ooooooXoXoooooooooo..ooooooooooo",
"ooooooooXooooooooooooooooooooooo",
"oooooooooooooooooooooooooooooooo",
"oooooooooooooooooooooooooooooooo",
"Xooooooooooooooooooooooooooooooo",
"oXoooooooooooooooooooooooooooooX",
"Xooooooooooooooooooooooooooooooo",
"oooooooooooooooooooooooooooooooo",
"oooooooooooooooooooooooooooooooo",
"oooooooooooooooooooooooooooooooo",
"oooooooooo.ooooooooooooooooooooo",
"ooooooooo.o.oooooooooooooooooooo",
"oooooooooo.ooooooooooooooooooooo",
"oooooooooooooooooooooooooXoooooo",
"oooooooooooooooooooooooXoXoooooo",
"oooooooooooooooooooooooXoXoooooo",
"oooooooooooooooooooooooXoooooooo",
"oooooooooooooooooooooooooooooooo",
"oooooooooooooXoooooooooooooooooo",
"ooooooooooooXoXooooooooooooooooo"
};
