/* XPM */
static char *result[] = {
/* columns rows colors chars-per-pixel */
"32 32 213 2 ",
"   c #505556",
".  c #515656",
"X  c #515657",
"o  c #525757",
"O  c #525758",
"+  c #535758",
"@  c #525759",
"#  c #535759",
"$  c #52555B",
"%  c #535858",
"&  c #5E6462",
"*  c #5E6463",
"=  c #5E6563",
"-  c #5F6563",
";  c #606664",
":  c #606666",
">  c #616766",
",  c #626865",
"<  c #636A67",
"1  c #666C69",
"2  c #656F6B",
"3  c #666F6C",
"4  c #6A6F6C",
"5  c #67706D",
"6  c #68716D",
"7  c #68716E",
"8  c #69726E",
"9  c #6D736F",
"0  c #686E71",
"q  c #696E73",
"w  c #6A6E74",
"e  c #6A7371",
"r  c #6E7370",
"t  c #6E7470",
"y  c #6D7672",
"u  c #6E7873",
"i  c #6F7974",
"p  c #717976",
"a  c #727B76",
"s  c #737C76",
"d  c #747D77",
"f  c #757D77",
"g  c #757E78",
"h  c #757F79",
"j  c #767E78",
"k  c #767F79",
"l  c #72787C",
"z  c #77807A",
"x  c #78817B",
"c  c #78827B",
"v  c #78817C",
"b  c #7A837C",
"n  c #7A837D",
"m  c #7A847D",
"M  c #7B847E",
"N  c #7B857E",
"B  c #7C847E",
"V  c #7C857F",
"C  c #7D857F",
"Z  c #7C867F",
"A  c #7C8580",
"S  c #7D8680",
"D  c #7E8680",
"F  c #7E8780",
"G  c #7F8781",
"H  c #7D8583",
"J  c #7D8584",
"K  c #7F8880",
"L  c #7E8881",
"P  c #7F8881",
"I  c #7F8981",
"U  c #7E8882",
"Y  c #7F8883",
"T  c #7F8983",
"R  c #7F8A82",
"E  c #808881",
"W  c #808983",
"Q  c #808A82",
"!  c #808B82",
"~  c #818B82",
"^  c #818B83",
"/  c #818C83",
"(  c #828C83",
")  c #838B84",
"_  c #828C84",
"`  c #838D84",
"'  c #838D85",
"]  c #848E85",
"[  c #848E86",
"{  c #858F86",
"}  c #868F86",
"|  c #868F87",
" . c #869087",
".. c #879187",
"X. c #879188",
"o. c #879288",
"O. c #889289",
"+. c #899489",
"@. c #8B958C",
"#. c #8C958C",
"$. c #8C958D",
"%. c #8C968C",
"&. c #8C978C",
"*. c #8C968D",
"=. c #8D978D",
"-. c #8E978E",
";. c #8D988D",
":. c #8E988E",
">. c #8F998F",
",. c #90988F",
"<. c #90998F",
"1. c #909B8F",
"2. c #909990",
"3. c #909A90",
"4. c #919A90",
"5. c #919C90",
"6. c #939E92",
"7. c #949E92",
"8. c #949F93",
"9. c #959F93",
"0. c #969F95",
"q. c #95A093",
"w. c #96A194",
"e. c #97A095",
"r. c #97A295",
"t. c #99A096",
"y. c #9AA197",
"u. c #98A396",
"i. c #99A497",
"p. c #9AA597",
"a. c #9AA598",
"s. c #9BA698",
"d. c #9BA699",
"f. c #9BA799",
"g. c #9CA799",
"h. c #9DA59A",
"j. c #9DA69B",
"k. c #9EA69B",
"l. c #9EA69C",
"z. c #9EA79C",
"x. c #9FA79C",
"c. c #9DA89A",
"v. c #9EA99A",
"b. c #9EA89B",
"n. c #9EA99B",
"m. c #9FAA9B",
"M. c #9FAA9C",
"N. c #A0A89D",
"B. c #A0AA9D",
"V. c #A1AB9D",
"C. c #A3AD9F",
"Z. c #A3AE9F",
"A. c #A3AEA0",
"S. c #A5AFA1",
"D. c #A5AEA2",
"F. c #A6AEA2",
"G. c #A7AEA2",
"H. c #A6AFA3",
"J. c #A5B0A1",
"K. c #A6B0A1",
"L. c #A6B0A2",
"P. c #A7B1A2",
"I. c #A7B1A3",
"U. c #A8B0A4",
"Y. c #A9B2A5",
"T. c #ACB4A7",
"R. c #ACB6A7",
"E. c #ACB4A8",
"W. c #ADB4A8",
"Q. c #ADB7A8",
"!. c #AEB6A9",
"~. c #AFB8A9",
"^. c #B0B8AA",
"/. c #B1B9AC",
"(. c #B2B9AC",
"). c #B1BAAC",
"_. c #B2BAAC",
"`. c #B2BBAC",
"'. c #B2BAAD",
"]. c #B3BAAD",
"[. c #B4BCAE",
"{. c #B6BDAF",
"}. c #B6BEB0",
"|. c #B7BEB0",
" X c #B7BFB1",
".X c #B8BFB1",
"XX c #B9C0B2",
"oX c #B9C1B2",
"OX c #BBC2B3",
"+X c #BBC3B4",
"@X c #BCC3B4",
"#X c #BCC4B5",
"$X c #BDC4B5",
"%X c #BEC5B6",
"&X c #BEC6B6",
"*X c #BFC6B7",
"=X c #BFC6B8",
"-X c #BFC7B8",
";X c #C0C7B8",
":X c #C0C8B8",
">X c #C1C8B9",
",X c #C2C8B9",
"<X c #C2C9B9",
"1X c #C2C9BA",
"2X c #C3C9BA",
"3X c #C3CABA",
"4X c #C3CABB",
"5X c #C4CBBB",
"6X c #C4CBBC",
"7X c #C5CBBC",
"8X c #C5CCBC",
"9X c #C6CDBD",
"0X c None",
/* pixels */
"0X0X0X0X0X0X0X0X0X0X0X0X0X0X0X0X0X0X0X0X0X0X0X0X0X0X0X0X0X0X0X0X",
"0X0X0X0X0X0X0X0X0X0X0X0X0X0X0X0X0X0X0X0X0X0X0X0X0X0X0X0X0X0X0X0X",
"0X0X0X0X0X0X0X0X0X0X0X0X0X0X0X0X0X0X0X0X0X0X0X0X0X0X0X0X0X0X0X0X",
"0X0X0X0X0X0X0X0X0X0X0X0X0X0X0X0X0X0X0X0X0X0X0X0X0X0X0X0X0X0X0X0X",
"0X0X0X0X0X0X0X0X0X0X0X0X7 7 7 7 7 7 0X0X0X0X0X0X0X0X0X0X0X0X0X0X",
"0X0X0X0X0X0X0X0X0X0X0X0XS P P P P S 0X0X0X0X0X0X0X0X0X0X0X0X0X0X",
"0X0X0X0X0X0X0X0X0X0X2 B k.E.T.T.E.l.V 3 5 7 0X0X0X0X0X0X0X0X0X0X",
"0X0X0X0X0X0X0X0X0X0XC ,.(.8X6X6X8X].,.F G F 0X0X0X0X0X0X0X0X0X0X",
"0X0X0X0X0X0X0X0X7 D x.].%X4X3X3X4X$X/.T.W.x.S 5 5 7 0X0X0X0X0X0X",
"0X0X0X0X0X0X0X0X7 M N.XX;X1X1X1X1X;X#X+X#XY.| z V D 0X0X0X0X0X0X",
"0X0X0X0X0X0X0X0X8 a  .z. X4X3X1X1X+XQ.P.I.V.8.e.D.l.V 3 0X0X0X0X",
"0X0X0X0X0X0X0X0Xk c Z @.D.[. XoXoX).C.s.s.n.A.~.&X].,.n 0X0X0X0X",
"0X0X0X0X0X0X6 h +.;.] ' #.0.V.L.L.Z.n.s.s.C.`.#X>X%X'.t.9   0X0X",
"0X0X0X0X0X0Xg Q 9.p.:.{ Q  .9.g.g.n.Z.K.S.R.+X1X,X4X9XG.r . 0X0X",
"0X0X0X0X7 g O.8.s.c.i.1.[  .8.g.f.C.).oXXXOX-X<X>X4X9XG.t . 0X0X",
"0X0X0X0Xd Q 8.M.n.n.m.u.&.:.b.L.J.R.+X2X1X1X>X>X1X-X.Xy.4 . 0X0X",
"0X0XX 1 ] q.d.n.c.v.n.g.r.b.^.oXoXOX=X1X1X>X>X1X4X Xz.E , o 0X0X",
"0X0XO < } a.c.n.n.a.6.q.B.Q.@X2X1X1X>X>X1X1X1X*X|.F.*.s & % 0X0X",
"0X0X@ ; b >.i.M.M.7.K { U.#X:X1X1X>X>X>X1X4X5X|.j.%.[ f * % 0X0X",
"0X0X$ : z X.5.w.6.o.h ) !.7X4X1X1X1X1X%X{._.'.D.#.R ^ j - + 0X0X",
"0X0X0Xq A ` ..] N z c $.(.7X5X1X1X4X5X}.h.<.2.*.[ ^ _ j = # 0X0X",
"0X0X0X0XJ T Y v y u m -.H.].'.(.(.'.].D.#.L I Q ^ ( _ x > $ 0X0X",
"0X0X0X0X0X0X0X0Xe i N | =.4.4.3.3.4.4.*.[ Q Q Q ^ ^ / S w 0X0X0X",
"0X0X0X0X0X0X0X0X0 p Z ^ Q Q Q Q Q Q Q Q ^ ^ ^ ^ W Y Y J 0X0X0X0X",
"0X0X0X0X0X0X0X0X0Xl U ^ ~ Q Q Q Q Q Q ! ^ ^ ^ W 0X0X0X0X0X0X0X0X",
"0X0X0X0X0X0X0X0X0X0XH Y Y Y Y Y Y Y Y Y Y Y Y H 0X0X0X0X0X0X0X0X",
"0X0X0X0X0X0X0X0X0X0X0X0X0X0X0X0X0X0X0X0X0X0X0X0X0X0X0X0X0X0X0X0X",
"0X0X0X0X0X0X0X0X0X0X0X0X0X0X0X0X0X0X0X0X0X0X0X0X0X0X0X0X0X0X0X0X",
"0X0X0X0X0X0X0X0X0X0X0X0X0X0X0X0X0X0X0X0X0X0X0X0X0X0X0X0X0X0X0X0X",
"0X0X0X0X0X0X0X0X0X0X0X0X0X0X0X0X0X0X0X0X0X0X0X0X0X0X0X0X0X0X0X0X",
"0X0X0X0X0X0X0X0X0X0X0X0X0X0X0X0X0X0X0X0X0X0X0X0X0X0X0X0X0X0X0X0X",
"0X0X0X0X0X0X0X0X0X0X0X0X0X0X0X0X0X0X0X0X0X0X0X0X0X0X0X0X0X0X0X0X"
};
