/* XPM */
static char *result[] = {
/* columns rows colors chars-per-pixel */
"32 32 13 1 ",
"  c #2C342A",
". c #383039",
"X c #523E54",
"o c #795D7C",
"O c #6AE44C",
"+ c #907094",
"@ c #9A879C",
"# c #9F95A0",
"$ c #A997AB",
"% c #B9B0BA",
"& c #D3CDD4",
"* c #F1F0FD",
"= c None",
/* pixels */
"================================",
"================================",
"================================",
"================================",
"================================",
"================================",
"================================",
"================================",
"================================",
"==========      ================",
"========= +**++* ===============",
"======== o+++*.X* ==============",
"======= o++o O .O ==============",
"====== o@%o    .X ==============",
"====== o%%o    .X ==============",
"====== o#&&o  .Xo ==============",
"======= o###oooo ===============",
"======== o%%%   ================",
"========= o&&&&& ===============",
"========== +##### ==============",
"========     +%%%% =============",
"=====   +++++$&&&& =============",
"==== oooooooo$%## ==============",
"====             ===============",
"================================",
"================================",
"================================",
"================================",
"================================",
"================================",
"================================",
"================================"
};
