/* XPM */
static char *result[] = {
/* columns rows colors chars-per-pixel */
"32 32 12 1 ",
"  c #2C342A",
". c #383039",
"X c #523E54",
"o c #795D7C",
"O c #6AE44C",
"+ c #907094",
"@ c #9F95A0",
"# c #A997AB",
"$ c #B9B0BA",
"% c #D3CDD4",
"& c #F1F0FD",
"* c None",
/* pixels */
"********************************",
"********************************",
"********************************",
"********************************",
"********************************",
"********************************",
"********************************",
"********************************",
"********************       *****",
"*********ooooo+++&&&&&&&++&  ***",
"***************oo+++++++&&X&& **",
"*************ooooooo++o  &&.&& *",
"************&&&&O&OOOOOOOOO.XO *",
"*************** o$o    .X      *",
"******oooooo$$$$$$$o  .Xo ******",
"*********oooo@@@@@@@oooo *******",
"************** o%%%%%   ********",
"************** o$$$$ ***********",
"************* o%%%% ************",
"************ +@@@@ *************",
"*******     o+$$$ **************",
"****   ++++++#%%% **************",
"*** oooooooo#$@@ ***************",
"***             ****************",
"********************************",
"********************************",
"********************************",
"********************************",
"********************************",
"********************************",
"********************************",
"********************************"
};
