/* XPM */
static char *result[] = {
/* columns rows colors chars-per-pixel */
"32 28 11 1 ",
"  c #2C342A",
". c #795D7C",
"X c #A83431",
"o c #907094",
"O c #9A879C",
"+ c #9F95A0",
"@ c #A997AB",
"# c #B9B0BA",
"$ c #D3CDD4",
"% c #F1F0FD",
"& c None",
/* pixels */
"&&&&&&&&&&&&&&&&&&&&&&&&&&&&&&&&",
"&&&&&&&&&&&&&&&&&&&&&&&&&&&&&&&&",
"&&&&&&&&&&&&&&&&&&&&&&&&&&&&&&&&",
"&&&&&&&&&&&&&&&&&&&&&&&&&&&&&&&&",
"&&&&&&&&&&&&&&&&&&&&&&&&&&&&&&&&",
"&&&&&&&&&&&&&&&&&&&&&&&&&&&&&&&&",
"&&&&&&&&&&&&&&&&&&&&&&&&&&&&&&&&",
"&&&&&&&&&&&&&&&&&&&&&&&&&&&&&&&&",
"&&&&&&&&&&&&&&&&&&&&&&&&&&&&&&&&",
"&&&&&&&&&&&&&&&&&&&&&&&&&&&&&&&&",
"&&&&&&&&&&&&     &&&&&&&&&&&&&&&",
"&&&&&&&&&&& .oooo &&&&&&&&&&&&&&",
"&&&&&&&&&& .oooooo &&&&&&&&&&&&&",
"&&&&&&&&& .O#.%%..% &&&&&&&&&&&&",
"&&&&&&&&& .### .... &&&&&&&&&&&&",
"&&&&&&&&& .+$$$  X &&&&&&&&&&&&&",
"&&&&&&&&&& .++++ &X&&&&&&&&&&&&&",
"&&&&&&&&&&& .### &&XX&&&&&&&&&&&",
"&&&&&&&&&&&& .$$$ &X&&&&&&&&&&&&",
"&&&&&&&&&&&&& o+++ &&&&&&&&&&&&&",
"&&&&&&&&     .o### &&&&&&&&&&&&&",
"&&&&&   oooooo@$$$ &&&&&&&&&&&&&",
"&&&& ........@#++ &&&&&&&&&&&&&&",
"&&&&             &&&&&&&&&&&&&&&",
"&&&&&&&&&&&&&&&&&&&&&&&&&&&&&&&&",
"&&&&&&&&&&&&&&&&&&&&&&&&&&&&&&&&",
"&&&&&&&&&&&&&&&&&&&&&&&&&&&&&&&&",
"&&&&&&&&&&&&&&&&&&&&&&&&&&&&&&&&"
};
