/* XPM */
static char *result[] = {
/* columns rows colors chars-per-pixel */
"32 32 10 1 ",
"  c #2C342A",
". c #795D7C",
"X c #907094",
"o c #9A879C",
"O c #9F95A0",
"+ c #A997AB",
"@ c #B9B0BA",
"# c #D3CDD4",
"$ c #F1F0FD",
"% c None",
/* pixels */
"%%%%%%%%%%%%%%%%%%%%%%%%%%%%%%%%",
"%%%%%%%%%%%%%%%%%%%%%%%%%%%%%%%%",
"%%%%%%%%%%%%%%%%%%%%%%%%%%%%%%%%",
"%%%%%%%%%%%%%%%%%%%%%%%%%%%%%%%%",
"%%%%%%%%%%%%%%%%%%%%%%%%%%%%%%%%",
"%%%%%%%%%%%%%%%%%%%%%%%%%%%%%%%%",
"%%%%%%%%%%%%%%%%%%%%%%%%%%%%%%%%",
"%%%%%%%%%%%%%%%%%%%%%%%%%%%%%%%%",
"%%%%%%%%%%%%%%%%%%%%%%%%%%%%%%%%",
"%%%%%%%%%%%%%%%%%%%%%%%%%%%%%%%%",
"%%%%%%%%%%%%     %%%%%%%%%%%%%%%",
"%%%%%%%%%%% .XXXX %%%%%%%%%%%%%%",
"%%%%%%%%%% .XXXXXX %%%%%%%%%%%%%",
"%%%%%%%%% .o@.$$..$ %%%%%%%%%%%%",
"%%%%%%%%% .@@@ .... %%%%%%%%%%%%",
"%%%%%%%%% .O###    %%%%%%%%%%%%%",
"%%%%%%%%%% .OOOO %%%%%%%%%%%%%%%",
"%%%%%%%%%%% .@@@ %%%%%%%%%%%%%%%",
"%%%%%%%%%%%% .### %%%%%%%%%%%%%%",
"%%%%%%%%%%%%% XOOO %%%%%%%%%%%%%",
"%%%%%%%%     .X@@@ %%%%%%%%%%%%%",
"%%%%%   XXXXXX+### %%%%%%%%%%%%%",
"%%%% ........+@OO %%%%%%%%%%%%%%",
"%%%%             %%%%%%%%%%%%%%%",
"%%%%%%%%%%%%%%%%%%%%%%%%%%%%%%%%",
"%%%%%%%%%%%%%%%%%%%%%%%%%%%%%%%%",
"%%%%%%%%%%%%%%%%%%%%%%%%%%%%%%%%",
"%%%%%%%%%%%%%%%%%%%%%%%%%%%%%%%%",
"%%%%%%%%%%%%%%%%%%%%%%%%%%%%%%%%",
"%%%%%%%%%%%%%%%%%%%%%%%%%%%%%%%%",
"%%%%%%%%%%%%%%%%%%%%%%%%%%%%%%%%",
"%%%%%%%%%%%%%%%%%%%%%%%%%%%%%%%%"
};
