/* XPM */
static char *result[] = {
/* columns rows colors chars-per-pixel */
"32 32 12 1 ",
"  c #2C342A",
". c #523E54",
"X c #795D7C",
"o c #6AE44C",
"O c #907094",
"+ c #9A879C",
"@ c #9F95A0",
"# c #A997AB",
"$ c #B9B0BA",
"% c #D3CDD4",
"& c #F1F0FD",
"* c None",
/* pixels */
"********************************",
"********************************",
"********************************",
"********************************",
"********************************",
"********************************",
"********************************",
"********************************",
"********************************",
"********************************",
"***********      ***************",
"********** OOOOOO **************",
"********* XO&&OO& **************",
"******** XOOO & .& *************",
"******* X+$X  o .o *************",
"******* X$$$X   . **************",
"******* X@%%%XXXX **************",
"******** X@@@@   ***************",
"********* XX$$$$  **************",
"**********  X%%%%@ *************",
"********     XO$$$ *************",
"*****   OOOOOO#%%% *************",
"**** XXXXXXXX#$@@ **************",
"****             ***************",
"********************************",
"********************************",
"********************************",
"********************************",
"********************************",
"********************************",
"********************************",
"********************************"
};
