/* XPM */
static char *_75b9659b7374dbfce4508c503986305I5DXUUZvDWY1dHT7[] = {
/* columns rows colors chars-per-pixel */
"32 32 4 1 ",
"  c None",
". c #696A6A",
"X c #847E87",
"o c #9BADB7",
/* pixels */
"                                ",
"                                ",
"                                ",
"                                ",
"                                ",
"                                ",
"                                ",
"                                ",
"                                ",
"                oo              ",
"             oooooooooo         ",
"            ooooooooooo         ",
"           oooXXXoooo.XX        ",
"          oXXXXXXXXXX..XX       ",
"          oXXXXXXXXXX...XX      ",
"         oXXXXXXXXXX.....X      ",
"       ooooXXXXXXXXX..oo..      ",
"      oooooooXX.XXXX..oooX      ",
"      ooooooo...XXXX..XX..      ",
"      oooXXoooo.XXX...XX.o      ",
"     oXXX.ooo.oo.oX...XXoo      ",
"     XXXX.XXX.Xoo.X..oooXo      ",
"     XXXX.XXX.XX..XXXX.....     ",
"     XXXX.XXXXXX.XXXXXX....     ",
"     .XX...XXXXXX.XXXXXX...     ",
"     ...oo..XXXXX.oooXX...      ",
"      ..Xoo..XXXXooXX.X..       ",
"         X...XXXoXX.....        ",
"             .......            ",
"                                ",
"                                ",
"                                "
};
